<svg viewBox="0 0 64 64" xmlns="http://www.w3.org/2000/svg"><path d="m0 0h64v64h-64z" fill="#f2b200"/><g fill="#ffdf99"><circle cx="32" cy="32" r="10.7"/><path d="m3.5 4.2c.4.8 1 1.8 1.8 3 .7 1.2 1.7 2.5 2.8 3.9s2.4 2.8 3.7 4.1 2.7 2.6 4.1 3.7 2.7 2.1 3.9 2.9c.6.4 1.2.7 1.7 1s1 .5 1.4.7.7.3.9.4.3.1.3.1 0-.1-.1-.3-.2-.5-.4-.9l-.7-1.4c-.3-.5-.6-1.1-1-1.7-.8-1.2-1.8-2.5-2.9-3.9s-2.4-2.8-3.7-4.1-2.7-2.6-4.1-3.7c-1.5-1-2.8-2-4-2.7-1.2-.8-2.3-1.4-3-1.8-.4-.2-.7-.4-1-.4-.2-.1-.3-.2-.3-.2s.1.1.2.3c0 .3.2.6.4 1m38.7 15.7c-.4.6-.7 1.2-1 1.7s-.5 1-.7 1.4-.3.7-.4.9-.1.3-.1.3.1 0 .3-.1.5-.2.9-.4l1.4-.7c.5-.3 1.1-.6 1.7-1 1.2-.8 2.5-1.8 3.9-2.9s2.8-2.4 4.1-3.7 2.6-2.7 3.7-4.1c1-1.6 2-2.9 2.7-4.1.8-1.2 1.4-2.3 1.8-3 .2-.4.3-.7.4-.9.1-.3.2-.4.2-.4s-.1.1-.3.1c-.2.1-.5.2-.9.4-.8.4-1.8 1-3 1.8-1.3.8-2.6 1.8-4 2.9s-2.8 2.4-4.1 3.7-2.6 2.7-3.7 4.1-2.1 2.8-2.9 4m-12.3-19.5c-.2 1.8-.3 3.6-.3 5.5s.1 3.8.3 5.5c.2 1.8.4 3.4.7 4.8s.6 2.6.9 3.4c.1.4.3.7.3 1 .1.2.1.3.1.3s.1-.1.1-.3c.1-.2.2-.5.3-1 .3-.8.6-2 .9-3.4s.6-3.1.7-4.8c.2-1.8.3-3.6.3-5.5s-.1-3.8-.3-5.5v-.4h-4.1c.1.1.1.2.1.4m-11.2 2.8c.5 1.7 1.1 3.5 1.7 5.2.7 1.8 1.4 3.5 2.2 5.1s1.6 3 2.4 4.2c.4.6.8 1.2 1.1 1.6.3.5.7.9.9 1.2.3.3.5.6.7.8s.2.3.2.3v-.4-1c0-.4-.1-1-.1-1.5-.1-.6-.1-1.2-.3-2-.2-1.4-.6-3-1-4.8-.5-1.7-1.1-3.5-1.7-5.2-.7-1.8-1.4-3.5-2.2-5.1-.3-.5-.6-1.1-.9-1.6h-3.8c.2 1 .5 2.1.8 3.2m24.3-1c-.9 1.5-1.7 3.2-2.5 4.9s-1.4 3.5-2 5.1c-.6 1.7-1 3.3-1.3 4.7s-.5 2.6-.6 3.5c0 .4-.1.8-.1 1v.4l.3-.3.7-.7c.6-.6 1.4-1.6 2.2-2.7.8-1.2 1.7-2.6 2.6-4.1s1.7-3.2 2.5-4.9 1.4-3.5 2-5.1c.5-1.4.8-2.7 1.1-3.9h-3.6c-.4.6-.9 1.4-1.3 2.1m20.6 27.7c-1.8-.2-3.6-.3-5.5-.3s-3.8.1-5.5.3c-1.8.2-3.4.4-4.8.7s-2.6.6-3.4.9c-.4.1-.7.3-1 .3-.2.1-.3.1-.3.1s.1.1.3.1c.2.1.5.2 1 .3.8.3 2 .6 3.4.9s3 .6 4.8.7c1.8.2 3.6.3 5.5.3s3.8-.1 5.5-.3h.4v-4.1c-.1.1-.2.1-.4.1m-2.8-11.2c-1.7.5-3.5 1.1-5.2 1.7-1.8.7-3.5 1.4-5.1 2.2s-3 1.6-4.2 2.4c-.6.4-1.2.8-1.6 1.1-.5.3-.9.7-1.2.9-.3.3-.6.5-.8.7s-.3.2-.3.2h1.4c.4 0 1-.1 1.5-.1.6-.1 1.2-.1 2-.3 1.4-.2 3-.6 4.8-1 1.7-.5 3.5-1.1 5.2-1.7 1.8-.7 3.5-1.4 5.1-2.2.6-.3 1.2-.6 1.7-.9v-3.8c-1.1.2-2.2.5-3.3.8m-60.4 15.4c1.8.2 3.6.3 5.5.3s3.8-.1 5.5-.3c1.8-.2 3.4-.4 4.8-.7.7-.1 1.3-.3 1.9-.5s1.1-.3 1.5-.4.7-.3 1-.3c.2-.1.3-.1.3-.1s-.1 0-.3-.1-.5-.2-1-.3c-.4-.1-.9-.3-1.5-.4-.6-.2-1.2-.3-1.9-.5-1.4-.3-3.1-.6-4.8-.7-1.8-.2-3.6-.3-5.5-.3s-3.8.1-5.5.3h-.4v4.1c.1-.1.2-.1.4-.1m1.8-13.1c1.5.9 3.2 1.7 4.9 2.5s3.5 1.4 5.1 2c1.7.6 3.3 1 4.7 1.3s2.6.5 3.5.6c.4 0 .8.1 1 .1h.4l-.3-.3-.7-.7c-.6-.6-1.6-1.4-2.7-2.2-1.2-.8-2.6-1.7-4.1-2.6s-3.2-1.7-4.9-2.5-3.5-1.4-5.1-2c-1.4-.5-2.7-.8-3.9-1.1v3.6c.6.4 1.4.9 2.1 1.3"/></g><path d="m0 32h64v32h-64z" fill="#42ade2"/><g fill="#ffdf99"><ellipse cx="31" cy="36.2" rx="12.9" ry="1.4"/><ellipse cx="34" cy="41.1" rx="10.3" ry="1.1"/><ellipse cx="30.1" cy="45.5" rx="8.2" ry=".9"/><ellipse cx="32.6" cy="49.5" rx="6.6" ry=".7"/><ellipse cx="30.2" cy="53.1" rx="5.3" ry=".6"/><ellipse cx="32.6" cy="56.2" rx="4.2" ry=".5"/></g></svg>